<svg viewBox="0 0 150 150" xmlns="http://www.w3.org/2000/svg" xmlns:xlink="http://www.w3.org/1999/xlink"><defs><path d="M.033 2.3L18.165.02c1.066-.135 2.435.47 3.043 1.344l3.16 4.539c.608.873 1.598 2.27 2.2 3.106.602.834 1.728 1.887 2.503 2.339a1.5 1.5 0 0 1 .258.186c2.108-.075 3.98 1.456 4.251 3.556l.224 1.725a9.43 9.43 0 0 1 .848-.048c3.212 0 4.897 1.46 6.25 2.633.648.56 1.199 1.028 1.873 1.337a42.38 42.38 0 0 1 .195 3.846c-2.114-.414-3.421-1.521-4.503-2.46-1.158-1.002-1.994-1.727-3.815-1.727-.135 0-.256.012-.382.02l.041.317c.145-.011.289-.024.448-.024 1.82 0 2.657.726 3.814 1.729 1.07.927 2.362 2.018 4.434 2.441 0 .061.005.12.005.182 0 23.398-19.243 42.367-42.98 42.367V2.3z" id="a"/></defs><g fill="none" fill-rule="evenodd"><path d="M132.974 75.487c0 31.75-25.738 57.487-57.487 57.487-31.75 0-57.487-25.738-57.487-57.487C18 43.737 43.738 18 75.487 18c31.749 0 57.487 25.738 57.487 57.487" fill="#EEEEED"/><path d="M114.178 73.022c-1.158-1.018-1.994-1.753-3.814-1.753s-2.657.735-3.814 1.753c-1.353 1.19-3.037 2.672-6.249 2.672-3.21 0-4.894-1.482-6.248-2.672-1.156-1.018-1.992-1.753-3.811-1.753-1.82 0-2.657.735-3.814 1.753-1.353 1.19-3.038 2.672-6.249 2.672-3.212 0-4.896-1.482-6.25-2.672-1.156-1.018-1.993-1.753-3.813-1.753s-2.656.735-3.812 1.753c-1.354 1.19-3.039 2.672-6.249 2.672-3.211 0-4.896-1.482-6.25-2.672-1.157-1.018-1.993-1.753-3.813-1.753s-2.656.735-3.813 1.753c-1.354 1.19-3.038 2.672-6.249 2.672s-4.895-1.482-6.248-2.672a18.51 18.51 0 0 0-.878-.739 43.655 43.655 0 0 0-.147 3.4c0 23.737 19.243 42.98 42.98 42.98s42.98-19.243 42.98-42.98c0-.062-.005-.123-.005-.185-2.072-.43-3.365-1.536-4.434-2.476M82.17 61.558a.32.32 0 0 1-.232-.098l-3.223-3.342a.322.322 0 1 1 .464-.447l3.223 3.342a.322.322 0 0 1-.232.545m4.834-6.684a.32.32 0 0 1-.232-.099l-3.223-3.342a.322.322 0 1 1 .464-.447l3.223 3.342a.322.322 0 0 1-.232.546m8.893-1.014a.32.32 0 0 1-.231-.1l-3.223-3.342a.322.322 0 1 1 .463-.446l3.223 3.342a.322.322 0 0 1-.232.545" fill="#59B8BB"/><path d="M61.102 72.6a.32.32 0 0 1-.231-.099l-3.223-3.342a.322.322 0 1 1 .463-.447l3.223 3.342a.322.322 0 0 1-.232.546" fill="#FEFEFE"/><path d="M65.936 65.915a.32.32 0 0 1-.231-.098l-3.223-3.342a.322.322 0 1 1 .463-.448l3.223 3.343a.322.322 0 0 1-.232.545M48.39 57.583a.644.644 0 0 1-.464-.197l-3.223-3.342a.644.644 0 0 1 .927-.894l3.223 3.342a.643.643 0 0 1-.464 1.091m2.806-8.057a.644.644 0 0 1-.464-.197l-3.223-3.342a.644.644 0 0 1 .927-.895l3.223 3.343a.643.643 0 0 1-.463 1.091m7.042 8.356a.644.644 0 0 1-.463-.197l-3.223-3.343a.644.644 0 0 1 .927-.894l3.223 3.343a.643.643 0 0 1-.464 1.09m1.193-8.713a.644.644 0 0 1-.463-.197l-3.223-3.342a.644.644 0 0 1 .928-.895l3.222 3.343a.643.643 0 0 1-.463 1.09m2.805-8.057a.644.644 0 0 1-.463-.196l-3.223-3.342a.644.644 0 0 1 .927-.895L62.7 40.02a.643.643 0 0 1-.464 1.09m6.087 7.043a.644.644 0 0 1-.463-.197l-3.223-3.342a.644.644 0 0 1 .927-.894l3.223 3.342a.643.643 0 0 1-.464 1.091m4.835-6.684a.644.644 0 0 1-.464-.197l-3.222-3.342a.644.644 0 0 1 .927-.895l3.223 3.343a.643.643 0 0 1-.464 1.09m7.639 6.864a.644.644 0 0 1-.463-.197l-3.223-3.342a.644.644 0 1 1 .927-.894l3.223 3.342a.643.643 0 0 1-.464 1.091m1.253-7.878a.644.644 0 0 1-.463-.197l-3.223-3.342a.644.644 0 0 1 .927-.894l3.223 3.342a.643.643 0 0 1-.463 1.091m-5.969 14.384a.644.644 0 0 1-.463-.197l-3.223-3.343a.644.644 0 1 1 .927-.893l3.223 3.342a.643.643 0 0 1-.464 1.09m15.16-8.892a.644.644 0 0 1-.464-.197l-3.223-3.342a.644.644 0 0 1 .928-.895l3.223 3.343a.643.643 0 0 1-.464 1.091m14.562 5.491a.644.644 0 0 1-.463-.197l-3.223-3.342a.644.644 0 0 1 .927-.895l3.223 3.343a.643.643 0 0 1-.464 1.09m-4.297 3.224a.644.644 0 0 1-.463-.197L97.82 51.12a.644.644 0 0 1 .927-.895l3.223 3.343a.643.643 0 0 1-.464 1.09m8.954 6.685a.644.644 0 0 1-.464-.197l-3.223-3.342a.644.644 0 0 1 .928-.894l3.223 3.342a.643.643 0 0 1-.464 1.091M98.881 42.662a.644.644 0 0 1-.463-.197l-3.223-3.342a.644.644 0 0 1 .927-.894l3.223 3.343a.643.643 0 0 1-.464 1.09M55.014 65.879a.644.644 0 0 1-.463-.197l-3.223-3.342a.644.644 0 0 1 .927-.895l3.223 3.343a.643.643 0 0 1-.464 1.091m-10.742-1.373a.644.644 0 0 1-.464-.197l-3.223-3.342a.644.644 0 1 1 .927-.894l3.223 3.342a.643.643 0 0 1-.463 1.091m24.47-6.326a.644.644 0 0 1-.464-.197l-3.223-3.342a.644.644 0 0 1 .927-.895l3.223 3.343a.643.643 0 0 1-.463 1.091m6.087 6.72a.32.32 0 0 1-.232-.098l-3.223-3.342a.322.322 0 1 1 .464-.448l3.223 3.343a.322.322 0 0 1-.232.546" fill="#59B8BB"/><path d="M104.986 69.667l-57.789 7.377a4.487 4.487 0 0 0-3.871 5.005l.547 4.286a4.487 4.487 0 0 0 5.004 3.871l57.79-7.377a4.487 4.487 0 0 0 3.87-5.004l-.547-4.286a4.486 4.486 0 0 0-5.004-3.872" fill="#633B8F"/><path d="M106.13 75.123c-.913-7.15-7.482-12.203-14.674-11.284l-36.62 4.674c-1.167.15-2.28.447-3.32.871-5.365 2.188-9.276 7.57-8.048 13.738l62.662-7.999z" fill="#633B8F"/><path d="M96.6 51.643c-.607-.886-1.977-1.5-3.043-1.364l-24.755 3.16c-1.066.137-2.549.881-3.295 1.654L52.112 68.987c-.747.774-.486 1.284.578 1.134l51.249-7.243c1.063-.15 1.3-.648.525-1.106-.775-.459-1.902-1.527-2.504-2.374a285.931 285.931 0 0 1-2.2-3.15l-3.16-4.605z" fill="#633B8F"/><path d="M106.838 81.504l-41.025 5.238a4.148 4.148 0 0 1-4.626-3.58l-1.443-11.31a4.148 4.148 0 0 1 3.578-4.626l41.025-5.237a4.148 4.148 0 0 1 4.626 3.579l1.444 11.31a4.148 4.148 0 0 1-3.579 4.626" fill="#633B8F"/><path d="M97.047 62.869c-.596-4.667-2.525-10.28-7.192-9.685l-19.812 2.53c-4.665.595-9.281 7.785-12.995 12.26l39.999-5.105z" fill="#F6B400"/><path d="M49.313 76.257c-.832 1.179-2.053 1.75-2.727 1.273-.674-.475-.545-1.817.287-2.996.832-1.18 2.054-1.75 2.727-1.274.674.476.546 1.817-.287 2.997" fill="#FEFEFE"/><path d="M58.15 76.115l51.276-6.546-.503-3.937c-.267-2.096-2.084-3.632-4.15-3.61l-38.686 4.94c-4.947.63-8.501 4.729-7.936 9.153" fill="#3F1480"/><path d="M80.672 67.279c.253.195.43.487.474.829l-5.595.714a1.248 1.248 0 0 1 1.079-1.396l3.12-.398c.343-.043.67.056.922.251" fill="#633B8F"/><path d="M51.185 82.877c-.008 0-.015 0-.023.002l-6.68.853a2.074 2.074 0 0 0-1.79 2.313l.204 1.595c.036.286.131.552.27.786a3.585 3.585 0 0 0 3.28 2.08l4.905-.627c4.27-.544 7.335-4.08 6.848-7.898l-7.014.896z" fill="#3F1480"/><path d="M63.83 85.72a6.75 6.75 0 1 1-13.39 1.71 6.75 6.75 0 0 1 13.39-1.71" fill="#F6B400"/><path d="M60.472 86.15a3.365 3.365 0 1 1-6.674.85 3.365 3.365 0 0 1 6.674-.85" fill="#FEFEFE"/><path d="M110.277 75.332l-7.898 1.009a8.14 8.14 0 0 1 1.848 4.223 8.17 8.17 0 0 1-.08 2.576l5.93-.757a3.586 3.586 0 0 0 2.653-2.837c.075-.262.1-.542.064-.829l-.204-1.595a2.074 2.074 0 0 0-2.313-1.79" fill="#3F1480"/><path d="M105.88 80.353a6.75 6.75 0 1 1-13.39 1.709 6.75 6.75 0 0 1 13.39-1.71" fill="#F6B400"/><path d="M47.522 80.108a1.17 1.17 0 1 1-2.322.297 1.17 1.17 0 0 1 2.322-.297" fill="#3F1480"/><path d="M102.728 80.778a3.365 3.365 0 1 1-6.675.851 3.365 3.365 0 0 1 6.675-.851m15.764-8.508c-.674-.314-1.225-.789-1.873-1.357-1.353-1.19-3.038-2.672-6.25-2.672-3.21 0-4.895 1.482-6.249 2.672-1.156 1.018-1.993 1.753-3.812 1.753-1.82 0-2.656-.735-3.813-1.753-1.353-1.19-3.036-2.672-6.247-2.672-3.212 0-4.897 1.482-6.25 2.672-1.157 1.018-1.993 1.753-3.813 1.753s-2.656-.735-3.814-1.753c-1.353-1.19-3.037-2.672-6.248-2.672-3.212 0-4.896 1.482-6.25 2.672-1.156 1.018-1.992 1.753-3.811 1.753-1.82 0-2.657-.735-3.815-1.753-1.353-1.19-3.038-2.672-6.249-2.672s-4.895 1.482-6.249 2.672c-1.156 1.018-1.993 1.753-3.813 1.753-1.819 0-2.655-.735-3.812-1.753-.762-.67-1.641-1.425-2.827-1.964a43.125 43.125 0 0 0-.503 3.975c.291.225.581.477.894.752 1.353 1.191 3.037 2.672 6.248 2.672 3.211 0 4.896-1.48 6.25-2.672 1.156-1.018 1.992-1.753 3.812-1.753 1.82 0 2.656.735 3.814 1.753 1.354 1.191 3.038 2.672 6.25 2.672 3.21 0 4.894-1.48 6.248-2.672 1.156-1.018 1.993-1.753 3.813-1.753s2.656.735 3.812 1.753c1.354 1.191 3.039 2.672 6.25 2.672s4.896-1.48 6.25-2.672c1.157-1.018 1.992-1.753 3.813-1.753 1.82 0 2.655.735 3.811 1.753 1.354 1.191 3.037 2.672 6.249 2.672 3.211 0 4.895-1.48 6.249-2.672 1.156-1.018 1.993-1.753 3.812-1.753 1.82 0 2.657.735 3.815 1.753 1.082.952 2.39 2.075 4.503 2.494a43.607 43.607 0 0 0-.195-3.9" fill="#FEFEFE"/><path fill="#633B8F" d="M82.387 64.962l-2.653.261-1.243-12.618 2.653-.262z"/><path d="M110.37 71.598c-1.82 0-2.656.735-3.814 1.752-1.353 1.191-3.037 2.673-6.248 2.673-3.212 0-4.895-1.482-6.249-2.673-1.156-1.017-1.992-1.752-3.811-1.752-1.82 0-2.657.735-3.814 1.753-1.353 1.19-3.038 2.672-6.249 2.672-3.212 0-4.896-1.482-6.25-2.673-1.156-1.017-1.993-1.752-3.813-1.752s-2.656.735-3.812 1.752c-1.354 1.191-3.038 2.673-6.249 2.673-3.21 0-4.895-1.482-6.249-2.673-1.158-1.017-1.994-1.752-3.814-1.752s-2.656.735-3.813 1.752c-1.353 1.191-3.037 2.673-6.249 2.673-3.211 0-4.894-1.482-6.248-2.673a18.51 18.51 0 0 0-.878-.738 43.655 43.655 0 0 0-.147 3.4c0 23.736 19.243 42.98 42.98 42.98s42.98-19.244 42.98-42.98c0-.062-.005-.123-.005-.185-2.071-.43-3.364-1.536-4.434-2.477-1.158-1.017-1.994-1.752-3.814-1.752z" fill="#59B8BB" style="mix-blend-mode:color"/><use fill="#D8D8D8" style="mix-blend-mode:multiply" opacity=".3" xlink:href="#a" transform="translate(75.539 51.561)"/></g></svg>