<svg viewBox="0 0 150 150" xmlns="http://www.w3.org/2000/svg" xmlns:xlink="http://www.w3.org/1999/xlink"><defs><path d="M.248 46.113h.04c11.983 0 21.696-9.57 21.696-21.377a21.07 21.07 0 0 0-4.253-12.71l.478-.27C14.709 5.32 8.035.81.248.26v45.854z" id="a"/></defs><g fill="none" fill-rule="evenodd"><path d="M132.974 75.487c0 31.75-25.738 57.487-57.487 57.487-31.75 0-57.487-25.738-57.487-57.487C18 43.737 43.738 18 75.487 18c31.749 0 57.487 25.738 57.487 57.487" fill="#EEEEED"/><path d="M111.546 100.879c-.07-10.148-8.265-18.353-18.372-18.353l-35.057-.013c-10.105 0-18.301 8.205-18.371 18.353l-.026 17.6 71.884.013-.058-17.6z" fill="#F19800"/><path d="M119.847 105.588c0-.897-.728-1.625-1.625-1.625H25.919a57.618 57.618 0 0 0 11.917 14.525h75.616a57.72 57.72 0 0 0 6.395-6.577v-6.323z" fill="#633B8F"/><path d="M113.775 105.313l-2.16-1.247H66.854l39.66 13.825c2.13 1.23 4.852.5 6.082-1.63l2.81-4.866a4.452 4.452 0 0 0-1.63-6.082" fill="#3F1381"/><path d="M117.075 106.882L22.997 52.567A56.96 56.96 0 0 0 18.9 66.97l90.913 52.49a1.625 1.625 0 0 0 2.22-.595l5.637-9.764a1.625 1.625 0 0 0-.594-2.22" fill="#633B8F"/><path d="M121.312 111.457l-8.338 11.743a1.087 1.087 0 0 1-1.515.257l-13.888-9.86a1.087 1.087 0 0 1-.256-1.516l8.338-11.743a1.086 1.086 0 0 1 1.515-.257l13.887 9.861c.49.348.605 1.026.257 1.515" fill="#3F1281"/><path fill="#633B8F" d="M107.638 120.744l9.596-13.515-3.122-2.217-9.597 13.515z"/><path d="M97.285 53.977c0 11.828-9.656 21.417-21.567 21.417S54.15 65.805 54.15 53.977c0-11.829 9.656-21.418 21.567-21.418s21.567 9.59 21.567 21.418" fill="#F19800"/><path d="M93.532 40.972a22.077 22.077 0 0 0-19.456-11.577c-12.184 0-22.062 9.809-22.062 21.909 0 4.167 1.172 8.063 3.207 11.38l38.311-21.712z" fill="#54ADAE"/><path d="M50.615 49.242c-.055.022-.11.036-.164.062-1.191.555-3.399 2.341-2.649 3.153.808.873 3.044.729 4.235.173a3.02 3.02 0 0 0 .51-.309L53 46.45c-.067-.05-.13-.104-.203-.15-1.12-.702-3.837-1.599-4.113-.537-.277 1.064.867 2.693 1.93 3.48" fill="#54ADAE"/><path d="M93.532 40.972c-.031-.058-.068-.114-.1-.172L52.18 48.802a21.421 21.421 0 0 0 3.04 13.881l38.312-21.711zM81.79 30.763a21.139 21.139 0 0 0-1.403-.468c-5.23 1.354-14.864 3.858-22.007 5.69-3.37 3.38-5.633 7.835-6.223 12.795 4.614-2.822 22.205-13.575 29.634-18.017" fill="#408B89"/><path d="M114.374 20.002l.592 3.14a.847.847 0 0 0 .49.617l2.922 1.293a.847.847 0 0 1 .064 1.518l-2.803 1.533a.848.848 0 0 0-.437.657l-.326 3.178a.847.847 0 0 1-1.424.53l-2.324-2.192a.847.847 0 0 0-.76-.212l-3.123.672a.847.847 0 0 1-.944-1.191l1.366-2.888a.847.847 0 0 0-.033-.788l-1.604-2.763a.847.847 0 0 1 .84-1.265l3.17.407a.847.847 0 0 0 .739-.275l2.132-2.38a.847.847 0 0 1 1.463.409" fill="#58B8BA"/><path d="M88.753 30.802a.593.593 0 0 1 .219-.956l1.286-.503c.81-.317 1.667-.164 2.732.036.673.127.976-.197 1.308-.968a2.641 2.641 0 0 1 1.436-1.412 2.576 2.576 0 0 1 2.007.013c.34.147.727.14 1.088-.019.374-.165.673-.47.84-.86.601-1.396 2.144-2.08 3.44-1.524l1.805.777a.594.594 0 0 1-.468 1.09l-1.806-.776c-.694-.299-1.538.106-1.88.901a2.826 2.826 0 0 1-1.454 1.479c-.666.292-1.388.3-2.034.023a1.393 1.393 0 0 0-1.088-.005 1.46 1.46 0 0 0-.796.782c-.56 1.302-1.386 1.897-2.618 1.665-.832-.156-1.479-.332-2.08-.097l-1.285.504a.594.594 0 0 1-.652-.15" fill="#7D7D7C"/><use fill="#D8D8D8" opacity=".7" style="mix-blend-mode:multiply" xlink:href="#a" transform="translate(75.643 29.187)"/></g></svg>