<svg viewBox="0 0 150 150" xmlns="http://www.w3.org/2000/svg" xmlns:xlink="http://www.w3.org/1999/xlink"><defs><path d="M.058 21.93a57.165 57.165 0 0 0 11.411 2.416V.936H.058v20.993z" id="a"/><path d="M.191.913C2.59 13.638 9.18 24.881 18.474 33.153H55.6V.912H.19z" id="c"/><path d="M1.423 43.075A57.71 57.71 0 0 1 .196 31.208c0-11.47 3.36-22.155 9.15-31.124h40.402v42.991H1.423z" id="e"/><path d="M.22 29.882a58.546 58.546 0 0 1-.024-1.674c0-10.201 2.658-19.782 7.32-28.087h39.107v29.76H.22z" id="g"/><path d="M.293.571a57.134 57.134 0 0 0 6.434 23.271H56.6V.572H.293z" id="i"/><path d="M.22 29.881a58.546 58.546 0 0 1-.024-1.673c0-10.201 2.658-19.782 7.32-28.087h24.311v29.76H.22z" id="k"/><path d="M.463.783A57.099 57.099 0 0 0 5.628 19.63H51.03V.783H.463z" id="m"/><path d="M.628.63a57.448 57.448 0 0 0 5.97 9.942V.63H.627z" id="o"/><path d="M6.084 33.577C2.314 25.927.196 17.314.196 8.208A58 58 0 0 1 .701.558h5.383v33.02z" id="q"/><path d="M3.502 27.464A57.373 57.373 0 0 1 .196 8.208c0-2.54.165-5.04.484-7.493H5.3v26.75H3.501z" id="s"/><path d="M8.505 39.99C3.232 31.305.196 21.111.196 10.208.196 6.99.46 3.834.969.76h7.536v39.23z" id="u"/></defs><g fill="none" fill-rule="evenodd"><path d="M18.196 74.468c0 31.739 25.729 57.468 57.468 57.468 31.739 0 57.468-25.73 57.468-57.468 0-31.74-25.73-57.468-57.468-57.468-31.74 0-57.468 25.729-57.468 57.468" fill="#EFEEEE"/><path d="M116.994 122.44h-.01a4.96 4.96 0 0 1-4.937-4.953l.016-10.935c.004-2.719 2.233-4.94 4.952-4.937h.009a4.96 4.96 0 0 1 4.938 4.952l-.016 10.934a4.96 4.96 0 0 1-4.952 4.938m-56.641-.082h-.009a4.96 4.96 0 0 1-4.938-4.952l.016-10.935c.004-2.72 2.233-4.941 4.952-4.937h.01a4.96 4.96 0 0 1 4.937 4.952l-.016 10.934a4.96 4.96 0 0 1-4.952 4.938" fill="#2C282C"/><path d="M112.436 114.133l-47.589-.069c-7.684-.01-13.962-6.307-13.95-13.99v-.027c.011-7.684 6.307-13.962 13.99-13.95l47.59.07c7.684.01 13.961 6.306 13.95 13.99v.026c-.01 7.683-6.307 13.961-13.99 13.95" fill="#EC9028"/><path d="M115.983 87.179l-54.605-.08c-2.486-.003-5.248-2.042-5.244-4.528l5.835-19.186c.94-2.737 2.041-4.518 4.528-4.514l44.111.064c2.487.003 3.625 1.993 4.515 4.527l6.118 19.204c-.004 2.486-2.772 4.517-5.258 4.513" fill="#EC9028"/><path d="M116.271 78.34l-55.608-.088s3.118-12.246 3.343-12.845c1.465-3.892 2.23-3.903 4.468-3.899l40.15.058c2.237.003 2.892-.05 4.455 3.912.238.604 3.192 12.862 3.192 12.862" fill="#7FC5C6"/><path d="M120.097 99.995l-62.87-.09c-3.481-.007-6.326-2.859-6.321-6.34l.011-7.528c.005-3.482 2.858-6.327 6.34-6.32l62.869.09c3.482.005 6.327 2.858 6.322 6.34l-.011 7.527c-.005 3.481-2.858 6.326-6.34 6.321" fill="#F1AA27"/><path fill="#B7DDE0" d="M73.916 61.516l10.957 16.775 20.097.029-12.417-16.777z"/><path d="M117.583 98.072l-57.836-.084a4.029 4.029 0 0 1-4.01-4.023l.011-8.315a4.029 4.029 0 0 1 4.023-4.011l57.836.084a4.03 4.03 0 0 1 4.011 4.023l-.012 8.315a4.03 4.03 0 0 1-4.023 4.01" fill="#333"/><path d="M127.493 79.04l-6.015-.008.005-3.274a3.277 3.277 0 0 1 3.273-3.264l2.747.004a3.277 3.277 0 0 1 3.263 3.273v.006a3.277 3.277 0 0 1-3.273 3.264m-77.127-.113l6.015.01.005-3.276a3.278 3.278 0 0 0-3.264-3.273l-2.746-.004a3.279 3.279 0 0 0-3.274 3.264v.006a3.278 3.278 0 0 0 3.264 3.273" fill="#F1AA27"/><path d="M88.906 110.304a8.179 8.179 0 0 0 8.121-8.237l-16.359.116a8.18 8.18 0 0 0 8.238 8.121m29.749-8.796h-12.944c-5.724 0-10.408-4.683-10.408-10.408v-.019c0-5.724 4.684-10.407 10.408-10.407h23.352V91.1c0 5.725-4.684 10.408-10.408 10.408" fill="#FEFEFE"/><path d="M118.655 101.508h-12.944c-5.724 0-10.408-4.683-10.408-10.408v-.019c0-5.724 4.684-10.407 10.408-10.407h23.352V91.1c0 5.725-4.684 10.408-10.408 10.408z" stroke="#F1AA27"/><path d="M112.194 89.035a7.625 7.625 0 0 1 7.46 6.1 7.623 7.623 0 1 0-14.94.007 7.623 7.623 0 0 1 7.48-6.107" fill="#333"/><path d="M57.91 101.508h12.944c5.724 0 10.408-4.683 10.408-10.408v-.019c0-5.724-4.684-10.407-10.408-10.407H47.502V91.1c0 5.725 4.684 10.408 10.408 10.408" fill="#FEFEFE"/><path d="M57.91 101.508h12.944c5.724 0 10.408-4.683 10.408-10.408v-.019c0-5.724-4.684-10.407-10.408-10.407H47.502V91.1c0 5.725 4.684 10.408 10.408 10.408z" stroke="#F1AA27"/><path d="M58.074 91.103a8.257 8.257 0 1 0 16.514-.024 8.257 8.257 0 0 0-16.514.024m10.454-11.955l-10.006 4.9a2.042 2.042 0 0 1-2.724-.931l-.002-.004a2.041 2.041 0 0 1 .933-2.724l10.006-4.901a2.042 2.042 0 0 1 2.724.932l.002.004a2.043 2.043 0 0 1-.933 2.724m50.384 4.099l-10.778-2.825a2.04 2.04 0 0 1-1.453-2.485v-.004a2.042 2.042 0 0 1 2.486-1.453l10.778 2.824a2.042 2.042 0 0 1 1.454 2.486l-.001.004a2.042 2.042 0 0 1-2.486 1.453" fill="#333"/><g transform="translate(58 107.607)"><mask id="b" fill="#fff"><use xlink:href="#a"/></mask><path d="M6.417 24.94H5.11c-2.778 0-5.052-2.272-5.052-5.051V5.988A5.066 5.066 0 0 1 5.11.936h1.307c2.778 0 5.052 2.273 5.052 5.052v13.9c0 2.78-2.274 5.053-5.052 5.053" fill="#040304" mask="url(#b)"/></g><g transform="translate(19 84.607)"><mask id="d" fill="#fff"><use xlink:href="#c"/></mask><path d="M49.268 33.152h-74.406c-3.482 0-6.331-2.849-6.331-6.33V7.243c0-3.482 2.849-6.33 6.33-6.33h74.407c3.482 0 6.33 2.848 6.33 6.33V26.82c0 3.482-2.848 6.331-6.33 6.331" fill="#54ADAE" mask="url(#d)"/><path d="M12.223 21.137a6.822 6.822 0 0 0-6.763 6.88l13.643-.117a6.822 6.822 0 0 0-6.88-6.763" fill="#FEFEFE" mask="url(#d)"/></g><g transform="translate(18 43.607)"><mask id="f" fill="#fff"><use xlink:href="#e"/></mask><path d="M44.537 43.075h-62.945c-2.866 0-5.21-2.345-5.21-5.21l4.152-32.57c0-2.866 2.345-5.21 5.212-5.21h54.637c2.867 0 5.212 2.344 5.212 5.21l4.153 32.57c0 2.865-2.345 5.21-5.21 5.21" fill="#54ADAE" mask="url(#f)"/></g><g transform="translate(18 46.607)"><mask id="h" fill="#fff"><use xlink:href="#g"/></mask><path d="M46.623 29.881h-67.117l3.312-24.39c0-2.953 2.345-5.37 5.211-5.37H38.1c2.866 0 5.211 2.417 5.211 5.37l3.312 24.39z" fill="#7FC5C6" mask="url(#h)"/></g><g transform="translate(18 77.607)"><mask id="j" fill="#fff"><use xlink:href="#i"/></mask><path d="M50.268 23.842h-74.406c-3.482 0-6.331-2.849-6.331-6.33V6.901c0-3.483 2.849-6.33 6.33-6.33h74.407c3.482 0 6.33 2.847 6.33 6.33v10.61c0 3.481-2.848 6.33-6.33 6.33" fill="#67BCBB" mask="url(#j)"/></g><g transform="translate(18 46.607)"><mask id="l" fill="#fff"><use xlink:href="#k"/></mask><path fill="#B7DDE0" mask="url(#l)" d="M-5.697.121L8.66 29.881h23.167L17.47.121z"/></g><g transform="translate(18 79.607)"><mask id="n" fill="#fff"><use xlink:href="#m"/></mask><path d="M47.013 19.63h-67.897a4.03 4.03 0 0 1-4.017-4.018V4.8A4.03 4.03 0 0 1-20.884.783h67.897A4.03 4.03 0 0 1 51.03 4.8v10.812a4.03 4.03 0 0 1-4.017 4.017" fill="#333" mask="url(#n)"/></g><path d="M76.22 77.282h-7.362v-4.203a3.349 3.349 0 0 1 3.339-3.34h4.023a3.349 3.349 0 0 1 3.339 3.34v.864a3.349 3.349 0 0 1-3.34 3.339" fill="#54ADAE"/><g transform="translate(23 98.607)"><mask id="p" fill="#fff"><use xlink:href="#o"/></mask><path d="M-37.9 1.925s10.281 17.326 27.123 12.092C3.878 8.993 6.597.63 6.597.63L-37.9 1.925z" fill="#54ADAE" mask="url(#p)"/></g><path d="M77.955 100.532s-10.173 17.326-26.838 12.092c-14.5-5.024-17.19-13.387-17.19-13.387l44.028 1.295z" fill="#54ADAE"/><g transform="translate(18 66.607)"><mask id="r" fill="#fff"><use xlink:href="#q"/></mask><path d="M6.084 20.79c0 11.175-9.059 20.234-20.233 20.234-11.174 0-20.233-9.06-20.233-20.233 0-11.174 9.06-20.233 20.233-20.233C-2.975.558 6.084 9.617 6.084 20.79" fill="#FEFEFE" mask="url(#r)"/></g><path d="M77.955 87.398c0 11.174-9.059 20.233-20.233 20.233-11.174 0-20.233-9.06-20.233-20.233 0-11.174 9.06-20.233 20.233-20.233 11.174 0 20.233 9.059 20.233 20.233" fill="#FEFEFE"/><path d="M66.297 88.652a8.575 8.575 0 0 1-8.575 8.575 8.575 8.575 0 0 1-8.575-8.575 8.575 8.575 0 0 1 8.575-8.575 8.575 8.575 0 0 1 8.575 8.575" fill="#333"/><path d="M64.365 68.097c-10.58-3.596-22.072 2.065-25.668 12.645L77.01 93.765c3.596-10.58-2.065-22.072-12.645-25.668" fill="#43918F"/><g transform="translate(18 66.607)"><mask id="t" fill="#fff"><use xlink:href="#s"/></mask><path d="M-20.369 1.796C-9.789-1.8 1.703 3.861 5.3 14.441l-38.313 13.023c-3.596-10.58 2.065-22.072 12.645-25.668" fill="#43918F" mask="url(#t)"/></g><g transform="translate(18 64.607)"><mask id="v" fill="#fff"><use xlink:href="#u"/></mask><path d="M8.505 22.66c.028 12.121-9.777 21.971-21.899 22-12.123.026-21.972-9.778-22-21.9-.027-12.123 9.777-21.972 21.9-22 12.122-.028 21.971 9.777 22 21.9z" stroke="#452E88" stroke-width="5" mask="url(#v)"/></g><path d="M79.529 87.145c.028 12.122-9.777 21.972-21.9 22-12.121.027-21.971-9.777-22-21.9-.026-12.122 9.778-21.972 21.9-21.999 12.123-.028 21.972 9.777 22 21.9z" stroke="#452E88" stroke-width="5"/><path d="M25.899 81.183a5.071 5.071 0 1 1 10.143-.023" stroke="#452E88" stroke-width="5" stroke-linecap="round" stroke-linejoin="round"/></g></svg>