<svg viewBox="0 0 150 150" xmlns="http://www.w3.org/2000/svg" xmlns:xlink="http://www.w3.org/1999/xlink"><defs><path d="M.503.855C10.14 16.158 27.44 26.362 47.18 26.362c12.455 0 23.939-4.062 33.14-10.905V.415H.502v.44z" id="a"/></defs><g fill="none" fill-rule="evenodd"><path d="M19.042 76.252c0 31.739 25.729 57.468 57.468 57.468 31.739 0 57.468-25.729 57.468-57.468 0-31.739-25.73-57.468-57.468-57.468-31.74 0-57.468 25.729-57.468 57.468" fill="#EFEEEE"/><path d="M49.268 40.552l-1.267-2.797a.012.012 0 0 1 .004-.014l12.96-9.023a3.532 3.532 0 0 1 2.58-.689L78.7 29.983c1.982.256 3.495 2.076 3.28 4.126-.22 2.079-2.044 3.565-4.047 3.305l-13.858-1.787a.007.007 0 0 0-.007.002l-8.824 6.64-.069.048c-2.06 1.41-4.86.546-5.907-1.765" fill="#DA9E75"/><path d="M78.34 34a3.584 3.584 0 0 1-1.645-.4l-13.201-6.79-9.908 3.494-.058.02c-1.977.7-4.12-.46-4.653-2.529L48 24.399l14.566-5.194a3.589 3.589 0 0 1 2.843.195l14.484 7.45c1.788.918 2.62 3.127 1.775 4.981A3.662 3.662 0 0 1 78.34 34" fill="#DA9E75"/><path d="M78.466 32a3.576 3.576 0 0 1-3.105-1.782l-5.53-9.596-7.656-1.83-.057-.014c-1.481-.352-2.394-1.818-2.043-3.281L61.155 11l11.855 3.132a3.56 3.56 0 0 1 2.262 1.683l6.237 10.824c.938 1.629.507 3.746-1.078 4.777a3.595 3.595 0 0 1-1.965.584" fill="#DA9E75"/><path d="M94.87 44.438c0-.005 1.592-.322 2.687-1.067C102.915 38.27 113 28 113 28s-4-4-7-6-8.443-3-8.443-3l-9.138 7.428S74.73 26.14 69 30.13L85.222 45l9.648-.562z" fill="#F6BF94"/><path d="M66.141 59.954L63.893 61l-8.554-19.31a3.644 3.644 0 0 1 1.932-4.91l15.5-8.574c1.885-.766 8.258.712 8.993 2.618.723 1.874-.28 3.976-2.14 4.733L63.56 42.09l5.49 11.329c.01.018.017.035.026.054.723 1.573.448 4.792-1.101 5.565l-1.833.915z" fill="#F6BF94"/><path d="M65.06 61.023a8 8 0 1 0 15.88 1.953 8 8 0 0 0-15.88-1.953z" stroke="#6A7982" stroke-width="3"/><path d="M80.144 68.609a.93.93 0 0 1-.659 1.14l-2.473.666a.943.943 0 0 1-1.15-.653l-.14-.508a2.202 2.202 0 0 1 1.56-2.698c1.177-.318 2.403.378 2.723 1.544l.14.509zm-3.253-3.473c-2.08.56-3.32 2.705-2.754 4.766l.238.869a1.69 1.69 0 0 0 2.065 1.17l4.319-1.162a1.67 1.67 0 0 0 1.182-2.046l-.238-.868c-.565-2.062-2.73-3.29-4.812-2.73z" fill="#246564"/><path d="M92.954 98.814l-11.23 3.041a4.13 4.13 0 0 1-5.067-2.889l-4.363-19.074c-1.206-4.418 1.412-8.974 5.847-10.175l1.568-.425c4.435-1.2 9.008 1.407 10.214 5.826l5.932 18.65a4.11 4.11 0 0 1-2.9 5.046" fill="#246564"/><path d="M95.852 92.854l-6.028-17.963c-1.176-4.081-5.497-6.556-9.824-5.734 2.3 1.136 4.18 3.283 4.971 6.027l6.748 20.464c.232.806.241 1.613.07 2.352l1.115-.285c2.236-.575 3.556-2.75 2.948-4.861" fill="#185B5A"/><path fill="#43918F" d="M91 84.552L88.81 78 76 81.3l1.612 6.7zm-13 4.181l1.115 5.023c.43 1.62 2.058 2.577 3.637 2.137l8.061-2.249c1.58-.44 2.512-2.112 2.082-3.732L91.38 85 78 88.733z"/><path d="M60.596 73.777a3.107 3.107 0 0 0-.902-.257c-1.72-.215-3.286 1.033-3.498 2.79-.212 1.755 1.012 3.354 2.732 3.57a3.052 3.052 0 0 0 1.659-.257c-1.223-.56-2.001-1.885-1.829-3.314a3.193 3.193 0 0 1 1.838-2.532" fill="#B0C1C7"/><path d="M78.276 68C82 64 81.555 58.944 79 56" stroke="#6A7982" stroke-width="3"/><path d="M85 79.08l1.885 6.006 3.75-1.03L88.733 78m-1.73 8.233l1.446 4.804c.357 1.387-.277 2.81-1.449 3.434l3.55-1.016c1.505-.43 2.395-2.065 1.985-3.65L91.089 85" fill="#348987"/><path d="M82.433 82.887l-.045-.22c-.093-.448.11-.915.454-1.036.343-.122.701.144.794.593l.046.219.318-.113-.08-.39c-.142-.676-.681-1.08-1.2-.895-.518.183-.827.888-.686 1.564l.081.391.318-.113z" fill="#246564"/><path d="M83.74 83.308a.364.364 0 0 1-.06.244l.105.233c.014.065-.018.133-.073.151l-.217.07c-.055.018-.112-.022-.127-.086l-.011-.272a.325.325 0 0 1-.167-.261c-.018-.18.09-.343.242-.365.152-.022.29.107.308.286m.217-1.281l-1.482.477c-.342.11-.545.53-.453.936l.23.998c.093.405.449.646.791.535l1.482-.476c.342-.11.546-.532.452-.936l-.229-.999c-.093-.404-.448-.646-.79-.535m2.782 9.281a.364.364 0 0 1-.06.244l.105.233c.014.065-.018.133-.073.151l-.217.07c-.055.018-.112-.022-.127-.086l-.011-.272a.325.325 0 0 1-.167-.262c-.018-.18.09-.342.242-.364.152-.022.29.107.308.286m.217-1.281l-1.482.477c-.342.11-.545.53-.453.936l.23.998c.093.405.449.646.791.535l1.482-.476c.342-.11.546-.532.452-.936l-.229-.999c-.093-.404-.448-.646-.79-.535" fill="#246564"/><path d="M87.433 90.887l-.045-.22c-.093-.448.11-.915.454-1.036.343-.122.701.144.794.593l.046.219.318-.113-.08-.39c-.142-.676-.681-1.08-1.2-.895-.518.183-.827.888-.686 1.564l.081.391.318-.113z" fill="#246564"/><path d="M78.967 61a4.016 4.016 0 0 1-2.823-1.145 3.769 3.769 0 0 1 .036-5.443L94.245 37.11c1.56-1.494 4.073-1.478 5.611.035a3.768 3.768 0 0 1-.036 5.443L81.755 59.89S79.973 61 78.967 61" fill="#F6BF94"/><path d="M77.326 55l-.767.916c-.739.884-.745 2.367-.02 3.327l.007.008a.145.145 0 0 0 .01.013v-.001c.744.94 1.938.988 2.678.104l.766-.916L77.326 55zm-12.509.669L64.303 54 62 55.418 63.437 60c.043-.022.087-.042.13-.068v.001l.011-.006.015-.01v-.001c1.172-.743 1.72-2.636 1.224-4.247" fill="#F4E8DE"/><path d="M62.699 127.237l1.816-8.712 12.905-9.507c3.656-2.695 9.09-2.258 12.14.974l-23.407 17.245H62.7z" fill="#E4A87E"/><path d="M76.027 127.4l1.643-8.711 11.674-9.508c3.309-2.694 8.226-2.258 10.984.975L79.152 127.4h-3.125z" fill="#E4A87E"/><path d="M76.745 109.48c0 4.288-3.359 7.764-7.502 7.764h-6.156c-4.144 0-4.44-3.476-4.44-7.765h18.098z" fill="#F6BF94"/><path d="M50.341 116.765c2.54-4.802 3.882-7.277 8.117-7.277h4.67c3.942 0 4.714 3.213 5.108 7.31L66 117c0 .678-.74 1.59 0 1.687h3c0 4.53-5.084 8.236-9.319 8.236h-3.954c-4.235 0-8.564.92-8.564-3.61l3.178-6.548z" fill="#F6BF94"/><g transform="translate(28 107)"><mask id="b" fill="#fff"><use xlink:href="#a"/></mask><path d="M21.738 11.563l35.926.124L69.337 2.18c3.307-2.694 8.226-2.257 10.982.975L60.27 19.552s-.955 1.018-2.548 1c-.984.018-18.495.018-18.495.018l-26.04 14.56L.504 21.21l21.235-9.647z" fill="#F6BF94" mask="url(#b)"/></g><path d="M63.655 113.326l-.001-.029c.026-2.122 1.732-3.836 3.835-3.836h9.483c2.102 0 3.81 1.714 3.834 3.836h.002l-.001.019v.029h-.001c-.025 2.123-1.732 3.836-3.834 3.836h-9.484c-2.102 0-3.807-1.713-3.833-3.836h-.001v-.019" fill="#F6BF94"/><path d="M75.743 115.847h1.511c1.458 0 2.642-1.19 2.66-2.662v-.032c-.018-1.474-1.202-2.662-2.66-2.662h-1.511v5.356z" fill="#F4E8DE"/><path d="M61.66 82.738c-1.373-.166-2.35-1.399-2.18-2.752.168-1.354 1.419-2.317 2.792-2.15 1.373.167 2.35 1.4 2.18 2.753-.17 1.354-1.42 2.316-2.792 2.15m-1.46 6.486l-.479 3.839a.492.492 0 0 0-.233.097l-1.33 1.025a.492.492 0 0 0-.088.697l.52.655-.665.513a.492.492 0 0 0-.088.697l.52.655-.665.513a.492.492 0 0 0-.088.697l.52.655-.665.513a.492.492 0 0 0-.087.697l1.039 1.312a.5.5 0 0 0 .21.153 1.973 1.973 0 0 0 1.746 2.041c1.094.133 2.09-.633 2.224-1.711l1.568-12.568c2.977-.492 5.4-2.858 5.787-5.963.472-3.782-2.256-7.225-6.092-7.69-3.837-.466-7.33 2.223-7.802 6.005-.388 3.104 1.381 5.979 4.148 7.168" fill="#B0C1C7"/><path d="M64.097 76.052a6.538 6.538 0 0 0-1.81.023c3.604.541 6.144 3.939 5.697 7.669-.372 3.103-2.699 5.47-5.558 5.962l-1.507 12.568A1.964 1.964 0 0 1 60 103.72c.222.136.475.23.748.265 1.05.133 2.007-.633 2.136-1.711l1.507-12.568c2.859-.492 5.186-2.859 5.558-5.962.453-3.783-2.167-7.227-5.852-7.692" fill="#9EB5BD"/><path d="M67.18 70.417c-1.087-.138-1.86-1.161-1.726-2.286.134-1.123 1.123-1.923 2.21-1.784 1.086.138 1.859 1.161 1.725 2.285-.133 1.124-1.122 1.923-2.21 1.785m-.946-6.11l-1.94-.246c-4.28-.545-8.212 2.631-8.74 7.057l-1.52 12.802c-.287 2.406 1.383 4.618 3.709 4.913l8.912 1.135c2.327.295 4.464-1.431 4.75-3.837l1.54-12.935c.517-4.353-2.503-8.352-6.71-8.887" fill="#59B8BB"/><path d="M68.179 65c.04.542.046 1.095.017 1.656.879.27 1.47 1.19 1.354 2.195-.114.993-.88 1.728-1.781 1.777l-1.602 13.948c-.263 2.289-1.544 4.139-3.167 4.873l3.936.518c2.223.294 4.266-1.415 4.539-3.798l1.47-12.803c.424-3.693-1.637-7.126-4.766-8.366" fill="#42B2B5"/><path d="M73.977 54.06a8 8 0 0 0-8.916 6.963C64.52 65.408 68 68 68 68" stroke="#6A7982" stroke-width="3"/></g></svg>