<svg viewBox="0 0 150 150" xmlns="http://www.w3.org/2000/svg" xmlns:xlink="http://www.w3.org/1999/xlink"><defs><path d="M.138 35.938c15.061-.016 28.308-7.794 35.967-19.555V.138H.138v35.8z" id="a"/></defs><g fill="none" fill-rule="evenodd"><path d="M132.974 75.487c0 31.75-25.738 57.487-57.487 57.487-31.75 0-57.487-25.738-57.487-57.487C18 43.737 43.738 18 75.487 18c31.749 0 57.487 25.738 57.487 57.487" fill="#EEEEED"/><path d="M39.735 101.545c0 9.283 7.384 16.807 16.493 16.807h11.715c9.108 0 16.493-7.524 16.493-16.807L39.79 98.12l-.055 3.424z" fill="#F1A924"/><path d="M111.39 98.469c-.392-8.773-7.649-15.77-16.57-15.77H56.374c-8.92 0-16.178 6.997-16.57 15.77h-.032v.632c0 .036-.006.071-.006.108h.006v7.167h71.636l-.018-7.907z" fill="#F1A924"/><path d="M97.112 56.29v-9.536c0-11.93-9.671-21.602-21.601-21.602s-21.602 9.672-21.602 21.602v9.536h43.203z" fill="#633B8F"/><path fill="#43918F" d="M97.004 75.322l-17.494 17.5h15.868l8.867-17.429z"/><path d="M97.368 53.74c0 12.014-9.738 21.752-21.751 21.752-12.013 0-21.751-9.738-21.751-21.751 0-12.013 9.738-21.752 21.75-21.752 12.014 0 21.752 9.739 21.752 21.752" fill="#F1A924"/><path d="M75.801 31.999v43.484c11.927-.1 21.567-9.792 21.567-21.743 0-11.95-9.64-21.64-21.568-21.74" fill-opacity=".5" fill="#DBDBDB" style="mix-blend-mode:multiply" opacity=".5"/><path d="M55.714 38.122c2.776 1.91 6.121 3.051 9.746 3.051 8.682 0 15.846-6.416 17.059-14.761a22.353 22.353 0 0 0-2.945-.865 21.678 21.678 0 0 0-4.063-.395c-8.86 0-16.464 5.338-19.797 12.97" fill="#633B8F"/><path d="M75.51 25.152c-.855 0-1.695.063-2.524.16a19.537 19.537 0 0 0-.92 5.931c0 10.806 8.76 19.567 19.566 19.567 1.904 0 3.74-.286 5.48-.793v-3.263c0-11.93-9.672-21.602-21.601-21.602" fill="#3F1281"/><path d="M96.402 92.797h-35.14v25.547h35.14c6.603 0 12.005-5.263 12.005-11.695v-2.157c0-6.432-5.402-11.695-12.005-11.695" fill="#58B8BA"/><path fill="#54ADAE" d="M77.412 92.796H61.33l9.09 25.548h2.57zm18.99 0H77.848l12.127 25.548h6.427c.316 0 .626-.023.935-.046 1.232-6.058 3.39-16.64 4.914-24.002a12.137 12.137 0 0 0-5.85-1.5"/><path d="M66.274 90.81c-.026-.053-.045-.105-.076-.156-.66-1.122-2.647-3.144-3.402-2.35-.812.856-.477 3.03.184 4.15.103.176.225.33.354.475h5.956c.045-.07.095-.135.135-.21.612-1.148 1.286-3.869.192-4.058-1.095-.19-2.64 1.05-3.343 2.148" fill="#54ADAE"/><path fill="#58B8BA" d="M93.293 100.96l-.3-8.163h-3.207z"/><g transform="translate(75.356 82.425)"><mask id="b" fill="#fff"><use xlink:href="#a"/></mask><path d="M36.085 16.078C35.672 7.306 28.357.308 19.363.308L.138.138v40.508L30.56 35.37l5.525-18.551c.02-.135.003-.265 0-.4v-.34z" fill="#F3F3F3" style="mix-blend-mode:multiply" opacity=".8" mask="url(#b)"/></g></g></svg>