<svg viewBox="0 0 150 150" xmlns="http://www.w3.org/2000/svg" xmlns:xlink="http://www.w3.org/1999/xlink"><defs><path d="M.213 46.288H16.92v4.135a3.537 3.537 0 0 0 3.524 3.53h7.789a3.537 3.537 0 0 0 3.524-3.53v-4.986c.037-.117.063-.238.063-.367v-1.42a11.412 11.412 0 0 0 2.646-3.114h-.163a11.072 11.072 0 0 0 1.633-5.33h.019c0-.087-.005-.171-.006-.258.002-.078.012-.154.012-.232h-.017c-.116-5.907-2.298-11.045-5.528-13.928-1.781-1.369-2.275-3.94-2.37-4.602C26.743 7 21.057.07 16.657.07H.213v46.218z" id="a"/></defs><g fill="none" fill-rule="evenodd"><path d="M132.974 75.63c0 31.67-25.674 57.344-57.344 57.344S18.286 107.3 18.286 75.63 43.96 18.286 75.63 18.286s57.344 25.674 57.344 57.344" fill="#EEEEED"/><path d="M18.698 82.689c3.59 28.333 27.608 50.239 56.722 50.239s53.132-21.906 56.723-50.24H18.698z" fill="#EEEEED" style="mix-blend-mode:multiply"/><path d="M43.879 89.396l-3.734.691a3.153 3.153 0 0 1-3.664-2.519l-1.716-9.262a3.153 3.153 0 0 1 2.52-3.664l3.733-.692c1.7-.315 3.35.819 3.664 2.52l1.715 9.262a3.153 3.153 0 0 1-2.518 3.664m32.54-6.008l-3.734.692a3.153 3.153 0 0 1-3.664-2.52l-1.715-9.262a3.153 3.153 0 0 1 2.519-3.664l3.734-.691a3.154 3.154 0 0 1 3.664 2.519l1.715 9.262a3.153 3.153 0 0 1-2.52 3.664" fill="#3F1281"/><path d="M72.224 58.086c-2.007-5.966-6.663-9.886-9.604-9.341l-21.584 3.997c-2.942.545-5.887 5.877-5.622 12.17.02.45-.095 2.139-1.042 3.39-1.833 2.39-2.645 6.21-1.894 10.27l47.382-8.776c-.756-4.078-2.899-7.367-5.484-8.933-1.36-.692-2.007-2.347-2.152-2.777" fill="#633B8F"/><path d="M32.414 78.245c.771 4.167 4.85 6.905 9.108 6.117l31.967-5.92c4.259-.789 7.086-4.806 6.314-8.973l-47.39 8.776z" fill="#633B8F"/><path d="M34.19 81.932a7.843 7.843 0 0 0 7.408 2.597l31.88-5.904a7.843 7.843 0 0 0 5.987-5.078L34.19 81.932z" fill="#633B8F"/><path d="M75.592 67.789a3.12 3.12 0 1 1-6.138 1.136 3.12 3.12 0 0 1 6.138-1.136m-33.82 6.263a3.12 3.12 0 1 1-6.137 1.136 3.12 3.12 0 0 1 6.137-1.136" fill="#FFF"/><path d="M58.394 67.158l.696-.13c-.25.048-.5.093-.747.138-1.069.167-2.194.375-3.363.598-1.172.21-2.296.42-3.353.646l-.748.14.697-.13c-5.708 1.225-9.481 2.941-8.57 7.864l26.205-4.852c-.912-4.923-5.05-5.174-10.817-4.274m-5.324 9.34l-.695.128.745-.137a290.68 290.68 0 0 0 3.362-.615 290.43 290.43 0 0 0 3.359-.63l.746-.138-.696.128c5.727-1.115 9.621-2.172 9.321-3.792l-26.204 4.853c.3 1.62 4.315 1.212 10.061.203" fill="#3F1281"/><path d="M70.584 59.806c-1.095-5.914-5.947-9.973-8.915-9.424l-19.16 3.549c-2.967.55-6.043 6.076-4.948 11.99l33.023-6.115z" fill="#FFF"/><path d="M55.003 66.801l-.389.072a.438.438 0 0 1-.51-.35l-.44-2.377a.438.438 0 0 1 .35-.51l.39-.071a.438.438 0 0 1 .509.35l.44 2.377a.438.438 0 0 1-.35.509" fill="#3F1281"/><path d="M64.019 35.433l2.948 7.755c.312.82-.687 1.344-1.292 1.387l-9.583 1.102c-1.33.109-1.821 1.345-.533 2.122l11.981 6.745c.348.337.423.867.181 1.287l-7.716 13.388c-.554.961.559 2.018 1.49 1.414l10.595-6.865a1.057 1.057 0 0 1 1.494.367l5.11 9.053c.487.862 1.785.642 1.96-.33l1.91-10.538a1.057 1.057 0 0 1 1.537-.743l8.943 4.786c.926.496 1.93-.517 1.426-1.438l-5.9-10.788a1.057 1.057 0 0 1 .532-1.488l13.073-6.863c.999-.402.826-1.866-.239-2.026l-12.777-.263a1.056 1.056 0 0 1-.897-1.13l-.484-11.912c.083-1.025-1.199-1.552-1.861-.766L77.15 40.095a1.057 1.057 0 0 1-1.353.225l-10.246-6.167c-.86-.518-1.889.342-1.532 1.28" fill="#58B8BA"/><path d="M66.06 104.31h-5.802a4.549 4.549 0 0 1-4.535-4.536V85.681a4.549 4.549 0 0 1 4.535-4.535h5.802a4.549 4.549 0 0 1 4.535 4.535v14.093a4.55 4.55 0 0 1-4.535 4.536m47.916 0h-5.801a4.549 4.549 0 0 1-4.535-4.536V85.681a4.549 4.549 0 0 1 4.535-4.535h5.801a4.549 4.549 0 0 1 4.536 4.535v14.093a4.55 4.55 0 0 1-4.536 4.536" fill="#3F1281"/><path d="M114.732 66.522c-1.308-9.189-7.007-16.124-11.417-16.124h-32.37c-4.413 0-10.115 6.941-11.42 16.137-.093.659-.712 3.076-2.42 4.635-3.302 2.974-5.505 8.296-5.505 14.383h71.06c0-6.116-2.225-11.46-5.553-14.426-1.785-1.37-2.28-3.942-2.375-4.605" fill="#F19800"/><path d="M51.594 85.062c0 6.25 5.178 11.316 11.565 11.316H111.1c6.386 0 11.564-5.066 11.564-11.316h-71.07z" fill="#F19800"/><path d="M53.265 90.885c1.98 3.436 5.735 5.756 10.045 5.756h47.813c4.31 0 8.064-2.32 10.044-5.756H53.265z" fill="#F19800"/><path d="M118.653 81.496a4.602 4.602 0 1 1-9.204 0 4.602 4.602 0 0 1 9.204 0m-53.833 0a4.602 4.602 0 1 1-9.204 0 4.602 4.602 0 0 1 9.203 0" fill="#FFF"/><path d="M92.33 75.963h1.044c-.377 0-.75-.001-1.121-.003a153.348 153.348 0 0 0-5.037-.035c-1.755-.01-3.442-.009-5.035.035-.373.002-.746.003-1.122.003h1.045c-8.605.243-14.537 1.718-14.537 9.101h39.299c0-7.383-5.932-8.858-14.537-9.101M82.1 88.076h-1.04 1.117c1.594.015 3.282.015 5.04.012 1.756.003 3.444.003 5.039-.011l1.118-.001h-1.042c8.603-.08 14.534-.566 14.534-2.996H67.567c0 2.43 5.93 2.916 14.534 2.996" fill="#F7B400"/><path d="M111.98 68.576c0-8.87-5.946-16.059-10.397-16.059H72.85c-4.45 0-10.395 7.19-10.395 16.059h49.525z" fill="#FFF"/><path d="M119.725 96.639H54.534a1.353 1.353 0 0 1-1.349-1.35v-2.554c0-.742.607-1.349 1.349-1.349h65.191c.742 0 1.35.607 1.35 1.349v2.555c0 .742-.608 1.349-1.35 1.349" fill="#633B8F"/><path d="M87.343 74.464h-.803a.53.53 0 0 1-.528-.528V70.28a.53.53 0 0 1 .528-.528h.803a.53.53 0 0 1 .528.528v3.656a.53.53 0 0 1-.528.528" fill="#F7B400"/><use fill-opacity=".5" fill="#D8D8D8" style="mix-blend-mode:multiply" xlink:href="#a" transform="translate(86.657 50.3)"/></g></svg>